Coordinates
version=1
nRows=13
nColumns=38
inDegrees=no

Units are S.I. units (second, meters, Newtons, ...)
If the header above contains a line with 'inDegrees', this indicates whether rotational values are in degrees (yes) or radians (no).

endheader
time	pelvis_tilt	pelvis_list	pelvis_rotation	pelvis_tx	pelvis_ty	pelvis_tz	hip_flexion_r	hip_adduction_r	hip_rotation_r	knee_angle_r	ankle_angle_r	subtalar_angle_r	mtp_angle_r	hip_flexion_l	hip_adduction_l	hip_rotation_l	knee_angle_l	ankle_angle_l	subtalar_angle_l	mtp_angle_l	lumbar_extension	lumbar_bending	lumbar_rotation	arm_flex_r	arm_add_r	arm_rot_r	elbow_flex_r	pro_sup_r	wrist_flex_r	wrist_dev_r	arm_flex_l	arm_add_l	arm_rot_l	elbow_flex_l	pro_sup_l	wrist_flex_l	wrist_dev_l
0.78	-0.0191496	-0.0429653	0.0438762	0.908462	1.00731	-0.36249	0.774649	-0.131821	-0.374668	-1.80391	0.193657	0.0572385	-0.00103051	-0.202411	-0.0516786	-0.240853	-0.49775	0.123517	0.0383731	-0.00844347	-0.222133	0.0632089	-0.111254	-0.505715	-0.249589	-0.0818526	1.57936	1.74615	0.0174779	0.0264633	-0.201121	-0.28117	0.0021041	2.25044	1.66606	0.0183905	0.00885961
0.79	-0.0182895	-0.0586194	0.0287098	0.912487	1.01398	-0.361552	0.798835	-0.112721	-0.385348	-1.69012	0.182394	0.0572385	-0.00103051	-0.274623	-0.0690268	-0.282998	-0.436705	0.00982682	0.0383731	-0.00844347	-0.210872	0.085193	-0.109393	-0.542928	-0.25476	-0.0974961	1.61005	1.72907	0.0174779	0.0264633	-0.198243	-0.273655	0.0288192	2.2847	1.68003	0.0183905	0.00885961
0.8	-0.0158942	-0.0695347	0.01536	0.916271	1.02045	-0.360859	0.80918	-0.0977288	-0.397652	-1.56457	0.166213	0.0572385	-0.00103051	-0.33839	-0.0803729	-0.324697	-0.392499	-0.0945581	0.0383731	-0.00844347	-0.203502	0.10283	-0.105697	-0.580633	-0.258343	-0.116631	1.64422	1.71299	0.0174779	0.0264633	-0.196645	-0.267257	0.0572931	2.31594	1.69665	0.0183905	0.00885961
0.81	-0.0120918	-0.0757608	0.00408551	0.9196	1.02648	-0.360498	0.806776	-0.0862458	-0.41021	-1.42921	0.144795	0.0572385	-0.00103051	-0.392023	-0.086349	-0.362716	-0.369516	-0.181627	0.0383731	-0.00844347	-0.200166	0.116123	-0.100527	-0.617178	-0.260508	-0.138574	1.6791	1.69805	0.0174779	0.0264633	-0.195732	-0.262425	0.0862924	2.34293	1.71476	0.0183905	0.00885961
0.82	-0.00710873	-0.0778898	-0.00514064	0.922379	1.0319	-0.36049	0.793042	-0.0770664	-0.421791	-1.28632	0.118018	0.0572385	-0.00103051	-0.434564	-0.088285	-0.39466	-0.370395	-0.246358	0.0383731	-0.00844347	-0.200641	0.125563	-0.0941098	-0.651044	-0.261774	-0.162167	1.71225	1.68408	0.0174779	0.0264633	-0.195396	-0.259353	0.114359	2.3649	1.73268	0.0183905	0.00885961
0.83	-0.00117639	-0.0769954	-0.0126135	0.924627	1.03662	-0.360776	0.769576	-0.0685949	-0.431424	-1.13869	0.0861218	0.0572385	-0.00103051	-0.465856	-0.0880296	-0.419456	-0.395832	-0.287285	0.0383731	-0.00844347	-0.204508	0.132083	-0.0863818	-0.681069	-0.262862	-0.186078	1.74183	1.67069	0.0174779	0.0264633	-0.195878	-0.258031	0.140147	2.38138	1.74853	0.0183905	0.00885961
0.84	0.00549276	-0.0744124	-0.018769	0.926436	1.04055	-0.361221	0.738085	-0.0592434	-0.438533	-0.989869	0.0498613	0.0572385	-0.00103051	-0.486414	-0.0876446	-0.437354	-0.444628	-0.306243	0.0383731	-0.00844347	-0.211182	0.136818	-0.0772398	-0.70636	-0.264664	-0.208814	1.76649	1.65748	0.0174779	0.0264633	-0.197782	-0.258321	0.162452	2.39221	1.76063	0.0183905	0.00885961
0.85	0.0127304	-0.0715253	-0.0240303	0.927925	1.04363	-0.361667	0.700366	-0.0478092	-0.443076	-0.844153	0.0105842	0.0572385	-0.00103051	-0.497237	-0.0891077	-0.449542	-0.51402	-0.307351	0.0383731	-0.00844347	-0.220007	0.140929	-0.0666105	-0.726344	-0.268066	-0.228977	1.78545	1.64419	0.0174779	0.0264633	-0.201877	-0.260041	0.180375	2.39744	1.76782	0.0183905	0.00885961
0.86	0.0203532	-0.0694996	-0.0286444	0.929206	1.04579	-0.361955	0.658371	-0.0338106	-0.445563	-0.706527	-0.0298182	0.0572385	-0.00103051	-0.499471	-0.0939959	-0.457467	-0.600186	-0.295711	0.0383731	-0.00844347	-0.230227	0.145329	-0.0547278	-0.74062	-0.273872	-0.245302	1.79835	1.63086	0.0174779	0.0264633	-0.209026	-0.263034	0.193226	2.3973	1.7697	0.0183905	0.00885961
0.87	0.0281596	-0.0691626	-0.0326362	0.930344	1.04697	-0.361988	0.614201	-0.0175324	-0.446922	-0.582397	-0.0690333	0.0572385	-0.00103051	-0.494194	-0.103298	-0.462312	-0.698859	-0.276184	0.0383731	-0.00844347	-0.2411	0.150621	-0.0419912	-0.749029	-0.282593	-0.256957	1.80525	1.61782	0.0174779	0.0264633	-0.21991	-0.2672	0.200618	2.3922	1.76663	0.0183905	0.00885961
0.88	0.0358997	-0.0709113	-0.0358508	0.93138	1.04715	-0.361714	0.57005	0.000147284	-0.448135	-0.477174	-0.10446	0.0572385	-0.00103051	-0.482238	-0.117332	-0.464714	-0.805861	-0.252601	0.0383731	-0.00844347	-0.252022	0.157075	-0.0288317	-0.751633	-0.294349	-0.263667	1.80662	1.60554	0.0174779	0.0264633	-0.234855	-0.272498	0.202436	2.38263	1.75953	0.0183905	0.00885961
0.89	0.043351	-0.0747279	-0.0380938	0.9323	1.04632	-0.361155	0.528104	0.0180759	-0.449762	-0.395746	-0.133283	0.0572385	-0.00103051	-0.464095	-0.135779	-0.464758	-0.917488	-0.227458	0.0383731	-0.00844347	-0.262568	0.164647	-0.0155765	-0.748635	-0.308854	-0.265696	1.80317	1.59447	0.0174779	0.0264633	-0.25378	-0.278908	0.198753	2.36913	1.74966	0.0183905	0.00885961
0.9	0.0503273	-0.0803135	-0.0392545	0.933037	1.04446	-0.360363	0.490384	0.0351521	-0.451577	-0.34197	-0.152496	0.0572385	-0.00103051	-0.439903	-0.157761	-0.462113	-1.03072	-0.202014	0.0383731	-0.00844347	-0.272548	0.173003	-0.00233084	-0.740285	-0.325476	-0.263756	1.79577	1.58489	0.0174779	0.0264633	-0.276217	-0.286387	0.189764	2.35226	1.73839	0.0183905	0.00885961
